<svg width="50" height="49" viewBox="0 0 50 49" fill="none" xmlns="http://www.w3.org/2000/svg">
<g clip-path="url(#clip0_1_164)">
<path d="M36.783 15.3143V7.65844C36.783 6.81285 36.0972 6.12727 35.2511 6.12727H33.7191V1.53376C33.7191 0.688175 33.0333 0.00259396 32.1871 0.00259396C30.0183 0.00259396 26.6968 -0.163538 22.7977 2.17111C20.374 1.45003 18.6598 1.53376 16.8675 1.53376C16.0214 1.53376 15.3355 2.21934 15.3355 3.06493V6.12727H13.8036C12.9574 6.12727 12.2716 6.81285 12.2716 7.65844V15.3143C12.2716 21.5502 16.958 26.7123 22.9953 27.4681V47.4688C22.9953 48.3144 23.6812 49 24.5273 49C25.3734 49 26.0593 48.3144 26.0593 47.4688V42.1097H28.3572C33.0032 42.1097 36.783 38.3319 36.783 33.6883V31.3916C36.783 30.546 36.0972 29.8604 35.2511 29.8604H31.4212C29.386 29.8604 27.5171 30.5853 26.0593 31.7903V27.4674C32.0877 26.7212 36.783 21.5847 36.783 15.3143ZM33.7191 15.3143C33.7191 18.0393 32.5134 20.5005 30.6077 22.1879C30.6378 21.9422 30.6552 21.6927 30.6552 21.439C30.6552 17.5614 29.2048 14.0165 26.8188 11.3159C28.8416 9.93634 31.24 9.18961 33.7191 9.18961V15.3143ZM30.6552 3.06493V6.43618C30.3721 6.49379 30.0909 6.55954 29.8121 6.63294C28.8183 5.52102 27.6848 4.57371 26.4473 3.80822C27.7849 3.31939 29.205 3.06493 30.6552 3.06493ZM18.3994 4.5961C21.443 4.5961 24.3986 5.70687 26.6972 7.82916C25.9386 8.22047 25.2112 8.67667 24.5228 9.19392C22.7416 7.85548 20.6603 6.89563 18.3994 6.43513V4.5961ZM15.3355 15.3143V9.18961C22.0933 9.18961 27.5912 14.6846 27.5912 21.439C27.5912 23.15 26.1775 24.5443 24.4468 24.4999C19.0648 24.367 15.3355 20.0933 15.3355 15.3143ZM31.4212 32.9227H33.7191V33.6883C33.7191 36.6433 31.3138 39.0474 28.3572 39.0474H26.0593V38.2818C26.0593 35.3269 28.4647 32.9227 31.4212 32.9227Z" fill="#020B20"/>
</g>
<defs>
<clipPath id="clip0_1_164">
<rect width="49.0255" height="49" fill="white" transform="translate(0.0145836)"/>
</clipPath>
</defs>
</svg>
