<svg width="172" height="69" viewBox="0 0 172 69" fill="none" xmlns="http://www.w3.org/2000/svg">
<path d="M36.7829 15.3143V7.65842C36.7829 6.81284 36.0971 6.12726 35.251 6.12726H33.719V1.53375C33.719 0.68816 33.0332 0.0025787 32.187 0.0025787C30.0182 0.0025787 26.6967 -0.163553 22.7976 2.1711C20.3739 1.45001 18.6597 1.53375 16.8674 1.53375C16.0213 1.53375 15.3354 2.21933 15.3354 3.06492V6.12726H13.8035C12.9573 6.12726 12.2715 6.81284 12.2715 7.65842V15.3143C12.2715 21.5501 16.9579 26.7123 22.9952 27.4681V47.4688C22.9952 48.3144 23.6811 49 24.5272 49C25.3733 49 26.0592 48.3144 26.0592 47.4688V42.1097H28.3571C33.0031 42.1097 36.7829 38.3319 36.7829 33.6883V31.3915C36.7829 30.546 36.0971 29.8604 35.251 29.8604H31.4211C29.3859 29.8604 27.517 30.5853 26.0592 31.7903V27.4674C32.0876 26.7212 36.7829 21.5847 36.7829 15.3143ZM33.719 15.3143C33.719 18.0393 32.5133 20.5004 30.6076 22.1879C30.6377 21.9422 30.6551 21.6926 30.6551 21.4389C30.6551 17.5614 29.2047 14.0165 26.8187 11.3159C28.8415 9.93633 31.2399 9.18959 33.719 9.18959V15.3143ZM30.6551 3.06492V6.43617C30.372 6.49378 30.0908 6.55952 29.812 6.63292C28.8182 5.52101 27.6847 4.57369 26.4472 3.8082C27.7848 3.31938 29.2049 3.06492 30.6551 3.06492ZM18.3994 4.59609C21.4429 4.59609 24.3985 5.70685 26.6972 7.82915C25.9385 8.22046 25.2111 8.67665 24.5227 9.1939C22.7415 7.85547 20.6602 6.89562 18.3994 6.43512V4.59609ZM15.3354 15.3143V9.18959C22.0932 9.18959 27.5911 14.6846 27.5911 21.4389C27.5911 23.15 26.1774 24.5443 24.4467 24.4998C19.0647 24.367 15.3354 20.0933 15.3354 15.3143ZM31.4211 32.9227H33.719V33.6883C33.719 36.6433 31.3137 39.0474 28.3571 39.0474H26.0592V38.2818C26.0592 35.3268 28.4646 32.9227 31.4211 32.9227Z" fill="white"/>
<path d="M56.0582 26.8411V30H46.9794V26.8411H56.0582ZM48.4418 12.9655V30H44.3353V12.9655H48.4418ZM54.8882 19.7278V22.7814H46.9794V19.7278H54.8882ZM56.0933 12.9655V16.1361H46.9794V12.9655H56.0933ZM61.6265 12.9655L64.411 18.6281L67.1955 12.9655H71.8753L67.1253 21.4126L72.004 30H67.2774L64.411 24.2321L61.5446 30H56.8063L61.6967 21.4126L56.935 12.9655H61.6265ZM80.4738 24.2204H76.2386V21.0499H80.4738C81.051 21.0499 81.519 20.9524 81.8778 20.7574C82.2365 20.5624 82.4978 20.2933 82.6616 19.9501C82.8332 19.5991 82.919 19.2053 82.919 18.7685C82.919 18.3005 82.8332 17.8676 82.6616 17.4698C82.4978 17.072 82.2365 16.7523 81.8778 16.5105C81.519 16.2609 81.051 16.1361 80.4738 16.1361H77.7829V30H73.6764V12.9655H80.4738C81.8388 12.9655 83.0126 13.2151 83.9954 13.7143C84.9859 14.2135 85.7464 14.8998 86.2768 15.7734C86.8071 16.6392 87.0723 17.6297 87.0723 18.7451C87.0723 19.8448 86.8071 20.8042 86.2768 21.6232C85.7464 22.4421 84.9859 23.0817 83.9954 23.5419C83.0126 23.9943 81.8388 24.2204 80.4738 24.2204ZM100.854 26.8411V30H92.2429V26.8411H100.854ZM93.7053 12.9655V30H89.5988V12.9655H93.7053ZM116.566 21.1435V21.8337C116.566 23.1363 116.382 24.3062 116.016 25.3436C115.657 26.3732 115.146 27.2545 114.483 27.9877C113.82 28.7131 113.036 29.2707 112.131 29.6607C111.227 30.0429 110.228 30.234 109.136 30.234C108.037 30.234 107.03 30.0429 106.118 29.6607C105.213 29.2707 104.425 28.7131 103.755 27.9877C103.092 27.2545 102.577 26.3732 102.21 25.3436C101.851 24.3062 101.672 23.1363 101.672 21.8337V21.1435C101.672 19.8409 101.851 18.671 102.21 17.6336C102.577 16.5963 103.088 15.7149 103.743 14.9895C104.406 14.2564 105.19 13.6987 106.095 13.3165C107.007 12.9265 108.013 12.7315 109.113 12.7315C110.205 12.7315 111.203 12.9265 112.108 13.3165C113.021 13.6987 113.808 14.2564 114.471 14.9895C115.134 15.7149 115.649 16.5963 116.016 17.6336C116.382 18.671 116.566 19.8409 116.566 21.1435ZM112.401 21.8337V21.1201C112.401 20.2777 112.326 19.5367 112.178 18.8972C112.038 18.2498 111.827 17.7077 111.546 17.2709C111.266 16.8342 110.919 16.5066 110.505 16.2882C110.1 16.062 109.636 15.9489 109.113 15.9489C108.567 15.9489 108.091 16.062 107.686 16.2882C107.28 16.5066 106.941 16.8342 106.668 17.2709C106.395 17.7077 106.188 18.2498 106.048 18.8972C105.915 19.5367 105.849 20.2777 105.849 21.1201V21.8337C105.849 22.6683 105.915 23.4093 106.048 24.0567C106.188 24.6962 106.395 25.2383 106.668 25.6829C106.949 26.1275 107.292 26.4628 107.697 26.689C108.111 26.9152 108.59 27.0283 109.136 27.0283C109.659 27.0283 110.123 26.9152 110.529 26.689C110.934 26.4628 111.273 26.1275 111.546 25.6829C111.827 25.2383 112.038 24.6962 112.178 24.0567C112.326 23.4093 112.401 22.6683 112.401 21.8337ZM119.01 12.9655H125.714C127.024 12.9655 128.163 13.1605 129.13 13.5505C130.097 13.9405 130.842 14.5177 131.365 15.282C131.895 16.0464 132.16 16.9901 132.16 18.1133C132.16 19.0883 132.008 19.9033 131.704 20.5585C131.4 21.2137 130.975 21.7557 130.429 22.1847C129.891 22.6059 129.263 22.953 128.545 23.226L127.2 23.9865H121.572L121.549 20.8159H125.714C126.237 20.8159 126.669 20.7223 127.013 20.5351C127.356 20.3479 127.613 20.0827 127.785 19.7395C127.964 19.3885 128.054 18.9713 128.054 18.4877C128.054 17.9963 127.964 17.5751 127.785 17.2241C127.605 16.8732 127.34 16.6041 126.989 16.4169C126.646 16.2297 126.221 16.1361 125.714 16.1361H123.117V30H119.01V12.9655ZM128.335 30L124.567 22.4655L128.92 22.4421L132.734 29.8245V30H128.335ZM146.679 26.8411V30H137.6V26.8411H146.679ZM139.062 12.9655V30H134.956V12.9655H139.062ZM145.509 19.7278V22.7814H137.6V19.7278H145.509ZM146.714 12.9655V16.1361H137.6V12.9655H146.714ZM44.3353 31.9655H51.0391C52.3494 31.9655 53.4882 32.1605 54.4553 32.5505C55.4225 32.9405 56.1674 33.5177 56.6899 34.282C57.2203 35.0464 57.4855 35.9901 57.4855 37.1133C57.4855 38.0883 57.3334 38.9033 57.0292 39.5585C56.725 40.2137 56.3 40.7557 55.754 41.1847C55.2158 41.6059 54.5879 41.953 53.8704 42.226L52.5249 42.9865H46.8975L46.8741 39.8159H51.0391C51.5617 39.8159 51.9945 39.7223 52.3377 39.5351C52.6809 39.3479 52.9383 39.0827 53.1099 38.7395C53.2893 38.3885 53.379 37.9713 53.379 37.4877C53.379 36.9963 53.2893 36.5751 53.1099 36.2241C52.9305 35.8732 52.6653 35.6041 52.3143 35.4169C51.9711 35.2297 51.5461 35.1361 51.0391 35.1361H48.4418V49H44.3353V31.9655ZM53.6598 49L49.8925 41.4655L54.2447 41.4421L58.0588 48.8245V49H53.6598ZM69.5237 31.9655H73.6302V43.0917C73.6302 44.4177 73.3533 45.5408 72.7996 46.4612C72.2458 47.3738 71.4697 48.064 70.4714 48.532C69.473 49 68.2991 49.234 66.9498 49.234C65.6161 49.234 64.4422 49 63.4282 48.532C62.4221 48.064 61.6343 47.3738 61.0649 46.4612C60.5034 45.5408 60.2226 44.4177 60.2226 43.0917V31.9655H64.3408V43.0917C64.3408 43.7937 64.4422 44.367 64.645 44.8116C64.8478 45.2484 65.1442 45.5681 65.5342 45.7709C65.9241 45.9737 66.396 46.0751 66.9498 46.0751C67.5114 46.0751 67.9833 45.9737 68.3654 45.7709C68.7476 45.5681 69.0362 45.2484 69.2312 44.8116C69.4262 44.367 69.5237 43.7937 69.5237 43.0917V31.9655ZM85.3057 44.4723C85.3057 44.2071 85.2667 43.9692 85.1887 43.7586C85.1107 43.5402 84.9664 43.3374 84.7558 43.1502C84.5452 42.9631 84.2411 42.7759 83.8433 42.5887C83.4533 42.3937 82.9385 42.1909 82.2989 41.9803C81.5502 41.7307 80.8287 41.4499 80.1345 41.1379C79.4404 40.8181 78.8203 40.4477 78.2743 40.0265C77.7283 39.5975 77.2954 39.0983 76.9757 38.5289C76.6559 37.9518 76.496 37.281 76.496 36.5166C76.496 35.7835 76.6598 35.1244 76.9874 34.5394C77.3149 33.9466 77.7712 33.4436 78.3562 33.0302C78.949 32.609 79.6431 32.2892 80.4387 32.0708C81.2343 31.8446 82.1039 31.7315 83.0477 31.7315C84.2957 31.7315 85.3954 31.9499 86.347 32.3867C87.3063 32.8157 88.0551 33.428 88.5933 34.2235C89.1392 35.0113 89.4122 35.9434 89.4122 37.0197H85.3291C85.3291 36.5907 85.2394 36.2124 85.06 35.8849C84.8884 35.5573 84.6271 35.2999 84.2762 35.1127C83.9252 34.9255 83.4845 34.8319 82.9541 34.8319C82.4393 34.8319 82.0064 34.9099 81.6555 35.0659C81.3045 35.2219 81.0393 35.4325 80.8599 35.6977C80.6805 35.955 80.5908 36.2397 80.5908 36.5517C80.5908 36.8091 80.661 37.0431 80.8014 37.2537C80.9496 37.4565 81.1563 37.6476 81.4215 37.827C81.6945 38.0064 82.022 38.178 82.4042 38.3417C82.7942 38.5055 83.231 38.6654 83.7146 38.8214C84.6193 39.11 85.4227 39.4337 86.1247 39.7925C86.8344 40.1435 87.4311 40.5452 87.9147 40.9975C88.4061 41.4421 88.7766 41.9491 89.0262 42.5185C89.2835 43.0878 89.4122 43.7313 89.4122 44.4489C89.4122 45.2133 89.264 45.8918 88.9677 46.4846C88.6713 47.0774 88.2462 47.5805 87.6924 47.9938C87.1386 48.3994 86.4757 48.7075 85.7035 48.9181C84.9313 49.1287 84.0695 49.234 83.1179 49.234C82.2443 49.234 81.3825 49.1248 80.5323 48.9064C79.6899 48.6802 78.9256 48.337 78.2392 47.8768C77.5528 47.4089 77.003 46.8122 76.5896 46.0868C76.184 45.3537 75.9812 44.484 75.9812 43.4778H80.0994C80.0994 43.977 80.1657 44.3982 80.2983 44.7414C80.4309 45.0846 80.6259 45.3615 80.8833 45.572C81.1407 45.7748 81.4566 45.923 81.831 46.0166C82.2053 46.1024 82.6343 46.1453 83.1179 46.1453C83.6405 46.1453 84.0617 46.0712 84.3814 45.923C84.7012 45.767 84.9352 45.5642 85.0834 45.3147C85.2316 45.0573 85.3057 44.7765 85.3057 44.4723ZM100.62 44.4723C100.62 44.2071 100.581 43.9692 100.503 43.7586C100.425 43.5402 100.28 43.3374 100.07 43.1502C99.8593 42.9631 99.5551 42.7759 99.1573 42.5887C98.7673 42.3937 98.2525 42.1909 97.613 41.9803C96.8642 41.7307 96.1427 41.4499 95.4486 41.1379C94.7544 40.8181 94.1343 40.4477 93.5883 40.0265C93.0424 39.5975 92.6095 39.0983 92.2897 38.5289C91.9699 37.9518 91.81 37.281 91.81 36.5166C91.81 35.7835 91.9738 35.1244 92.3014 34.5394C92.629 33.9466 93.0853 33.4436 93.6702 33.0302C94.263 32.609 94.9572 32.2892 95.7528 32.0708C96.5483 31.8446 97.418 31.7315 98.3617 31.7315C99.6097 31.7315 100.709 31.9499 101.661 32.3867C102.62 32.8157 103.369 33.428 103.907 34.2235C104.453 35.0113 104.726 35.9434 104.726 37.0197H100.643C100.643 36.5907 100.553 36.2124 100.374 35.8849C100.202 35.5573 99.9412 35.2999 99.5902 35.1127C99.2392 34.9255 98.7985 34.8319 98.2681 34.8319C97.7534 34.8319 97.3205 34.9099 96.9695 35.0659C96.6185 35.2219 96.3533 35.4325 96.1739 35.6977C95.9945 35.955 95.9048 36.2397 95.9048 36.5517C95.9048 36.8091 95.975 37.0431 96.1154 37.2537C96.2636 37.4565 96.4703 37.6476 96.7355 37.827C97.0085 38.0064 97.3361 38.178 97.7183 38.3417C98.1083 38.5055 98.545 38.6654 99.0286 38.8214C99.9334 39.11 100.737 39.4337 101.439 39.7925C102.148 40.1435 102.745 40.5452 103.229 40.9975C103.72 41.4421 104.091 41.9491 104.34 42.5185C104.598 43.0878 104.726 43.7313 104.726 44.4489C104.726 45.2133 104.578 45.8918 104.282 46.4846C103.985 47.0774 103.56 47.5805 103.006 47.9938C102.453 48.3994 101.79 48.7075 101.018 48.9181C100.245 49.1287 99.3835 49.234 98.4319 49.234C97.5584 49.234 96.6965 49.1248 95.8463 48.9064C95.004 48.6802 94.2396 48.337 93.5532 47.8768C92.8669 47.4089 92.317 46.8122 91.9036 46.0868C91.498 45.3537 91.2952 44.484 91.2952 43.4778H95.4135C95.4135 43.977 95.4798 44.3982 95.6124 44.7414C95.745 45.0846 95.9399 45.3615 96.1973 45.572C96.4547 45.7748 96.7706 45.923 97.145 46.0166C97.5194 46.1024 97.9484 46.1453 98.4319 46.1453C98.9545 46.1453 99.3757 46.0712 99.6955 45.923C100.015 45.767 100.249 45.5642 100.397 45.3147C100.546 45.0573 100.62 44.7765 100.62 44.4723ZM111.523 31.9655V49H107.428V31.9655H111.523ZM122.157 35.5456L118.004 49H113.593L119.853 31.9655H122.649L122.157 35.5456ZM125.597 49L121.432 35.5456L120.894 31.9655H123.725L130.019 49H125.597ZM125.433 42.6472V45.8177H116.694V42.6472H125.433Z" fill="white"/>
</svg>
